HIERARCHY
ROOT hip
{
  OFFSET 0 90.174 2.4664
  CHANNELS 6 Xposition Yposition Zposition Zrotation Xrotation Yrotation
  JOINT abdomen
  {
    OFFSET 0 -1.186 -1.5018
    CHANNELS 6 Xposition Yposition Zposition Zrotation Xrotation Yrotation
    JOINT abdomen2
    {
      OFFSET 0 9.964 0.2134
      CHANNELS 6 Xposition Yposition Zposition Zrotation Xrotation Yrotation
      JOINT chest
      {
        OFFSET 0 13.134 -3.2573
        CHANNELS 6 Xposition Yposition Zposition Zrotation Xrotation Yrotation
        JOINT neck
        {
          OFFSET 0 20.686 -1.6905
          CHANNELS 6 Xposition Yposition Zposition Zrotation Xrotation Yrotation
          JOINT head
          {
            OFFSET 0 7.238 -0.1237
            CHANNELS 6 Xposition Yposition Zposition Zrotation Xrotation Yrotation
            End Site
            {
              OFFSET 0 0 0
            }
          }
        }
        JOINT lCollar
        {
          OFFSET 1.7069 20.075 5.0056
          CHANNELS 6 Xposition Yposition Zposition Zrotation Xrotation Yrotation
          JOINT lShldr
          {
            OFFSET 13.6458 -0.047 -4.849
            CHANNELS 6 Xposition Yposition Zposition Zrotation Xrotation Yrotation
            JOINT lForeArm
            {
              OFFSET 28.3255 -0.9759 2.2888
              CHANNELS 6 Xposition Yposition Zposition Zrotation Xrotation Yrotation
              JOINT lHand
              {
                OFFSET 22.1583 -0.53 10.8316
                CHANNELS 6 Xposition Yposition Zposition Zrotation Xrotation Yrotation
                JOINT lThumb1
                {
                  OFFSET 0.786 0.112 2.5817
                  CHANNELS 6 Xposition Yposition Zposition Zrotation Xrotation Yrotation
                  JOINT lThumb2
                  {
                    OFFSET 0.3601 -0.878 4.2331
                    CHANNELS 6 Xposition Yposition Zposition Zrotation Xrotation Yrotation
                    JOINT lThumb2_End
                    {
                      OFFSET 1.8127 -1.216 2.2227
                      CHANNELS 6 Xposition Yposition Zposition Zrotation Xrotation Yrotation
                      End Site
                      {
                        OFFSET 0.0181 -0.0122 0.0222
                      }
                    }
                  }
                }
                JOINT lCarpal1
                {
                  OFFSET 0.9571 1.114 1.7695
                  CHANNELS 6 Xposition Yposition Zposition Zrotation Xrotation Yrotation
                  JOINT lIndex1
                  {
                    OFFSET 4.1246 0.487 4.1451
                    CHANNELS 6 Xposition Yposition Zposition Zrotation Xrotation Yrotation
                    JOINT lIndex2
                    {
                      OFFSET 3.4052 -1.454 2.7682
                      CHANNELS 6 Xposition Yposition Zposition Zrotation Xrotation Yrotation
                      JOINT lIndex2_End
                      {
                        OFFSET 1.4531 -1.795 1.2713
                        CHANNELS 6 Xposition Yposition Zposition Zrotation Xrotation Yrotation
                        End Site
                        {
                          OFFSET 0.0145 -0.0179 0.0127
                        }
                      }
                    }
                  }
                  JOINT lMid1
                  {
                    OFFSET 5.6954 0.21 2.1184
                    CHANNELS 6 Xposition Yposition Zposition Zrotation Xrotation Yrotation
                    JOINT lMid2
                    {
                      OFFSET 3.9766 -1.54 2.3863
                      CHANNELS 6 Xposition Yposition Zposition Zrotation Xrotation Yrotation
                      JOINT lMid2_End
                      {
                        OFFSET 1.4042 -1.926 1.125
                        CHANNELS 6 Xposition Yposition Zposition Zrotation Xrotation Yrotation
                        End Site
                        {
                          OFFSET 0.014 -0.0193 0.0113
                        }
                      }
                    }
                  }
                }
                JOINT lCarpal2
                {
                  OFFSET 2.0956 0.66 -0.3894
                  CHANNELS 6 Xposition Yposition Zposition Zrotation Xrotation Yrotation
                  JOINT lRing1
                  {
                    OFFSET 5.0395 -0.09 2.4971
                    CHANNELS 6 Xposition Yposition Zposition Zrotation Xrotation Yrotation
                    JOINT lRing2
                    {
                      OFFSET 3.7921 -1.552 1.4806
                      CHANNELS 6 Xposition Yposition Zposition Zrotation Xrotation Yrotation
                      JOINT lRing2_End
                      {
                        OFFSET 1.4655 -1.808 0.9609
                        CHANNELS 6 Xposition Yposition Zposition Zrotation Xrotation Yrotation
                        End Site
                        {
                          OFFSET 0.0147 -0.0181 0.0096
                        }
                      }
                    }
                  }
                  JOINT lPinky1
                  {
                    OFFSET 4.9141 -1.269 0.3591
                    CHANNELS 6 Xposition Yposition Zposition Zrotation Xrotation Yrotation
                    JOINT lPinky2
                    {
                      OFFSET 3.1477 -1.685 0.8462
                      CHANNELS 6 Xposition Yposition Zposition Zrotation Xrotation Yrotation
                      JOINT lPinky2_End
                      {
                        OFFSET 0.8055 -1.585 0.7955
                        CHANNELS 6 Xposition Yposition Zposition Zrotation Xrotation Yrotation
                        End Site
                        {
                          OFFSET 0.0081 -0.0158 0.008
                        }
                      }
                    }
                  }
                }
              }
            }
          }
        }
        JOINT rCollar
        {
          OFFSET -1.7069 20.075 5.0056
          CHANNELS 6 Xposition Yposition Zposition Zrotation Xrotation Yrotation
          JOINT rShldr
          {
            OFFSET -13.6458 -0.047 -4.849
            CHANNELS 6 Xposition Yposition Zposition Zrotation Xrotation Yrotation
            JOINT rForeArm
            {
              OFFSET -28.3255 -0.9759 2.2888
              CHANNELS 6 Xposition Yposition Zposition Zrotation Xrotation Yrotation
              JOINT rHand
              {
                OFFSET -22.1583 -0.53 10.8316
                CHANNELS 6 Xposition Yposition Zposition Zrotation Xrotation Yrotation
                JOINT rThumb1
                {
                  OFFSET -0.786 0.112 2.5817
                  CHANNELS 6 Xposition Yposition Zposition Zrotation Xrotation Yrotation
                  JOINT rThumb2
                  {
                    OFFSET -0.3601 -0.878 4.2331
                    CHANNELS 6 Xposition Yposition Zposition Zrotation Xrotation Yrotation
                    JOINT rThumb2_End
                    {
                      OFFSET -1.8127 -1.216 2.2227
                      CHANNELS 6 Xposition Yposition Zposition Zrotation Xrotation Yrotation
                      End Site
                      {
                        OFFSET -0.0181 -0.0122 0.0222
                      }
                    }
                  }
                }
                JOINT rCarpal1
                {
                  OFFSET -0.9571 1.114 1.7695
                  CHANNELS 6 Xposition Yposition Zposition Zrotation Xrotation Yrotation
                  JOINT rIndex1
                  {
                    OFFSET -4.1246 0.487 4.1451
                    CHANNELS 6 Xposition Yposition Zposition Zrotation Xrotation Yrotation
                    JOINT rIndex2
                    {
                      OFFSET -3.4052 -1.454 2.7682
                      CHANNELS 6 Xposition Yposition Zposition Zrotation Xrotation Yrotation
                      JOINT rIndex2_End
                      {
                        OFFSET -1.4531 -1.795 1.2713
                        CHANNELS 6 Xposition Yposition Zposition Zrotation Xrotation Yrotation
                        End Site
                        {
                          OFFSET -0.0145 -0.018 0.0127
                        }
                      }
                    }
                  }
                  JOINT rMid1
                  {
                    OFFSET -5.6954 0.21 2.1184
                    CHANNELS 6 Xposition Yposition Zposition Zrotation Xrotation Yrotation
                    JOINT rMid2
                    {
                      OFFSET -3.9766 -1.54 2.3863
                      CHANNELS 6 Xposition Yposition Zposition Zrotation Xrotation Yrotation
                      JOINT rMid2_End
                      {
                        OFFSET -1.4042 -1.926 1.125
                        CHANNELS 6 Xposition Yposition Zposition Zrotation Xrotation Yrotation
                        End Site
                        {
                          OFFSET -0.014 -0.0193 0.0113
                        }
                      }
                    }
                  }
                }
                JOINT rCarpal2
                {
                  OFFSET -2.0956 0.66 -0.3894
                  CHANNELS 6 Xposition Yposition Zposition Zrotation Xrotation Yrotation
                  JOINT rRing1
                  {
                    OFFSET -5.0395 -0.09 2.4971
                    CHANNELS 6 Xposition Yposition Zposition Zrotation Xrotation Yrotation
                    JOINT rRing2
                    {
                      OFFSET -3.7921 -1.552 1.4806
                      CHANNELS 6 Xposition Yposition Zposition Zrotation Xrotation Yrotation
                      JOINT rRing2_End
                      {
                        OFFSET -1.4655 -1.808 0.9609
                        CHANNELS 6 Xposition Yposition Zposition Zrotation Xrotation Yrotation
                        End Site
                        {
                          OFFSET -0.0147 -0.0181 0.0096
                        }
                      }
                    }
                  }
                  JOINT rPinky1
                  {
                    OFFSET -4.9141 -1.269 0.3592
                    CHANNELS 6 Xposition Yposition Zposition Zrotation Xrotation Yrotation
                    JOINT rPinky2
                    {
                      OFFSET -3.1477 -1.685 0.8462
                      CHANNELS 6 Xposition Yposition Zposition Zrotation Xrotation Yrotation
                      JOINT rPinky2_End
                      {
                        OFFSET -0.8055 -1.585 0.7955
                        CHANNELS 6 Xposition Yposition Zposition Zrotation Xrotation Yrotation
                        End Site
                        {
                          OFFSET -0.0081 -0.0158 0.008
                        }
                      }
                    }
                  }
                }
              }
            }
          }
        }
      }
    }
  }
  JOINT lThigh
  {
    OFFSET 8.367 -8.2066 0.5982
    CHANNELS 6 Xposition Yposition Zposition Zrotation Xrotation Yrotation
    JOINT lShin
    {
      OFFSET 2.1923 -43.463 -0.4932
      CHANNELS 6 Xposition Yposition Zposition Zrotation Xrotation Yrotation
      JOINT lFoot
      {
        OFFSET 0.7333 -45.8593 -2.6451
        CHANNELS 6 Xposition Yposition Zposition Zrotation Xrotation Yrotation
        End Site
        {
          OFFSET 2.6618 -4.2699 12.3931
        }
      }
    }
  }
  JOINT rThigh
  {
    OFFSET -8.367 -8.2066 0.5982
    CHANNELS 6 Xposition Yposition Zposition Zrotation Xrotation Yrotation
    JOINT rShin
    {
      OFFSET -2.1923 -43.463 -0.4931
      CHANNELS 6 Xposition Yposition Zposition Zrotation Xrotation Yrotation
      JOINT rFoot
      {
        OFFSET -0.7333 -45.8593 -2.6451
        CHANNELS 6 Xposition Yposition Zposition Zrotation Xrotation Yrotation
        End Site
        {
          OFFSET -2.6618 -4.2699 12.3931
        }
      }
    }
  }
}
MOTION
Frames:	4
Frame Time:	0.0333333
-0.527968 81.0421 -10.4699 -180 -87.2657 -180 0 -1.186 -1.5018 -0.0342643 4.44613 -0.11393 -5.55112e-017 9.964 0.2134 -0.0599013 8.89228 -0.22621 -1.11022e-016 13.134 -3.2573 -0.0599013 8.89226 -0.22621 8.32667e-017 20.686 -1.6905 -9.05672 -6.26026 -0.996586 1.77636e-015 7.238 -0.1237 0.883794 -3.15091 -14.6529 1.7069 20.075 5.0056 -7.83426 29.0963 0.529201 13.6458 -0.047 -4.849 -69.5847 -6.13804 -58.5302 28.3255 -0.9759 2.2888 -28.1806 -19.8574 -13.9123 22.1583 -0.53 10.8316 0.846697 31.9969 -9.98138 0.786 0.112 2.5817 -4.77083e-015 0 6.36111e-015 0.3601 -0.878 4.2331 -6.36111e-015 -1.59028e-015 -3.18055e-015 1.8127 -1.216 2.2227 -3.18055e-015 -7.95139e-016 -0 0.9571 1.114 1.7695 -4.77083e-015 0 3.18055e-015 4.1246 0.487 4.1451 7.95139e-016 -3.97569e-015 1.59028e-014 3.4052 -1.454 2.7682 -5.56597e-015 -7.95139e-016 -0 1.4531 -1.795 1.2713 -3.97569e-015 -7.15625e-015 -3.18055e-015 5.6954 0.21 2.1184 7.95139e-016 -3.97569e-015 1.59028e-014 3.9766 -1.54 2.3863 -5.56597e-015 -7.95139e-016 -0 1.4042 -1.926 1.125 -3.97569e-015 -7.15625e-015 -3.18055e-015 2.0956 0.66 -0.3894 -4.77083e-015 0 3.18055e-015 5.0395 -0.09 2.4971 7.95139e-016 -3.97569e-015 1.59028e-014 3.7921 -1.552 1.4806 -5.56597e-015 -7.95139e-016 -0 1.4655 -1.808 0.9609 -3.97569e-015 -7.15625e-015 -3.18055e-015 4.9141 -1.269 0.3591 7.95139e-016 -3.97569e-015 1.59028e-014 3.1477 -1.685 0.8462 -5.56597e-015 -7.95139e-016 -0 0.8055 -1.585 0.7955 -3.97569e-015 -7.15625e-015 -3.18055e-015 -1.7069 20.075 5.0056 -22.3273 2.46387 -11.3997 -13.6458 -0.047 -4.849 80.2847 -2.89561 -44.9765 -28.3255 -0.9759 2.2888 -40.8906 22.7345 74.2135 -22.1583 -0.53 10.8316 6.35394 22.8325 -7.06785 -0.786 0.112 2.5817 7.88823e-007 1.46379e-006 -3.01201e-007 -0.3601 -0.878 4.2331 2.25261e-006 6.74967e-007 -5.46299e-007 -1.8127 -1.216 2.2227 2.25261e-006 6.74967e-007 -5.46299e-007 -0.9571 1.114 1.7695 2.38542e-015 -3.97569e-016 -3.18055e-015 -4.1246 0.487 4.1451 7.88823e-007 1.46379e-006 -3.01201e-007 -3.4052 -1.454 2.7682 2.25261e-006 6.74967e-007 -5.46299e-007 -1.4531 -1.795 1.2713 2.25261e-006 6.74967e-007 -5.46299e-007 -5.6954 0.21 2.1184 7.88823e-007 1.46379e-006 -3.01201e-007 -3.9766 -1.54 2.3863 2.25261e-006 6.74967e-007 -5.46299e-007 -1.4042 -1.926 1.125 2.25261e-006 6.74967e-007 -5.46299e-007 -2.0956 0.66 -0.3894 2.38542e-015 -3.97569e-016 -3.18055e-015 -5.0395 -0.09 2.4971 7.88823e-007 1.46379e-006 -3.01201e-007 -3.7921 -1.552 1.4806 2.25261e-006 6.74967e-007 -5.46299e-007 -1.4655 -1.808 0.9609 2.25261e-006 6.74967e-007 -5.46299e-007 -4.9141 -1.269 0.3592 7.88823e-007 1.46379e-006 -3.01201e-007 -3.1477 -1.685 0.8462 2.25261e-006 6.74967e-007 -5.46299e-007 -0.8055 -1.585 0.7955 2.25261e-006 6.74967e-007 -5.46299e-007 8.367 -8.2066 0.5982 13.7138 0.0403562 1.721 2.1923 -43.463 -0.4932 -0.249343 10.7353 0.779378 0.7333 -45.8593 -2.6451 11.1021 13.6406 -1.64113 -8.367 -8.2066 0.5982 -6.84495 -16.102 -7.84229 -2.1923 -43.463 -0.4931 3.33526 41.3268 -3.69497 -0.7333 -45.8593 -2.6451 -14.3188 19.6539 5.22713 
-0.527511 81.1058 -10.4485 -180 -87.0402 -180 0 -1.186 -1.5018 -0.0335886 4.41212 -0.113697 1.11022e-016 9.964 0.2134 -0.0586273 8.82426 -0.225799 2.77556e-017 13.134 -3.2573 -0.0586273 8.82425 -0.225799 -5.55112e-017 20.686 -1.6905 -9.04353 -5.45705 -0.86798 0 7.238 -0.1237 0.880344 -3.21241 -14.7265 1.7069 20.075 5.0056 -7.92388 29.3947 0.573372 13.6458 -0.047 -4.849 -69.5847 -6.13805 -58.5301 28.3255 -0.9759 2.2888 -28.1807 -19.8574 -13.9123 22.1583 -0.53 10.8316 0.846672 31.9969 -9.98137 0.786 0.112 2.5817 7.95139e-016 3.97569e-015 3.18055e-015 0.3601 -0.878 4.2331 5.56597e-015 0 -3.18055e-015 1.8127 -1.216 2.2227 3.97569e-015 3.18055e-015 6.36111e-015 0.9571 1.114 1.7695 -2.38542e-015 2.38542e-015 3.18055e-015 4.1246 0.487 4.1451 3.97569e-015 0 1.27222e-014 3.4052 -1.454 2.7682 -2.38542e-015 5.56597e-015 -0 1.4531 -1.795 1.2713 6.36111e-015 3.97569e-015 -6.36111e-015 5.6954 0.21 2.1184 3.97569e-015 0 1.27222e-014 3.9766 -1.54 2.3863 -2.38542e-015 5.56597e-015 -0 1.4042 -1.926 1.125 6.36111e-015 3.97569e-015 -6.36111e-015 2.0956 0.66 -0.3894 -2.38542e-015 2.38542e-015 3.18055e-015 5.0395 -0.09 2.4971 3.97569e-015 0 1.27222e-014 3.7921 -1.552 1.4806 -2.38542e-015 5.56597e-015 -0 1.4655 -1.808 0.9609 6.36111e-015 3.97569e-015 -6.36111e-015 4.9141 -1.269 0.3591 3.97569e-015 0 1.27222e-014 3.1477 -1.685 0.8462 -2.38542e-015 5.56597e-015 -0 0.8055 -1.585 0.7955 6.36111e-015 3.97569e-015 -6.36111e-015 -1.7069 20.075 5.0056 -23.0327 2.30241 -11.4551 -13.6458 -0.047 -4.849 80.2622 -3.00253 -45.3799 -28.3255 -0.9759 2.2888 -41.364 23.5796 74.8886 -22.1583 -0.53 10.8316 6.38246 22.3938 -7.23225 -0.786 0.112 2.5817 -3.71636e-006 1.13601e-007 7.91402e-007 -0.3601 -0.878 4.2331 -4.61867e-006 -5.06658e-006 1.45065e-006 -1.8127 -1.216 2.2227 -7.88712e-007 -1.46382e-006 3.01415e-007 -0.9571 1.114 1.7695 7.95139e-016 -4.77083e-015 3.18055e-015 -4.1246 0.487 4.1451 -3.71636e-006 1.13601e-007 7.91402e-007 -3.4052 -1.454 2.7682 -4.61867e-006 -5.06658e-006 1.45065e-006 -1.4531 -1.795 1.2713 -7.88712e-007 -1.46382e-006 3.01415e-007 -5.6954 0.21 2.1184 -3.71636e-006 1.13601e-007 7.91402e-007 -3.9766 -1.54 2.3863 -4.61867e-006 -5.06658e-006 1.45065e-006 -1.4042 -1.926 1.125 -7.88712e-007 -1.46382e-006 3.01415e-007 -2.0956 0.66 -0.3894 7.95139e-016 -4.77083e-015 3.18055e-015 -5.0395 -0.09 2.4971 -3.71636e-006 1.13601e-007 7.91402e-007 -3.7921 -1.552 1.4806 -4.61867e-006 -5.06658e-006 1.45065e-006 -1.4655 -1.808 0.9609 -7.88712e-007 -1.46382e-006 3.01415e-007 -4.9141 -1.269 0.3592 -3.71636e-006 1.13601e-007 7.91402e-007 -3.1477 -1.685 0.8462 -4.61867e-006 -5.06658e-006 1.45065e-006 -0.8055 -1.585 0.7955 -7.88712e-007 -1.46382e-006 3.01415e-007 8.367 -8.2066 0.5982 13.7137 0.281676 1.72672 2.1923 -43.463 -0.4932 -0.249371 10.7385 0.779567 0.7333 -45.8593 -2.6451 11.1017 13.6379 -1.64084 -8.367 -8.2066 0.5982 -6.86343 -15.8251 -7.87833 -2.1923 -43.463 -0.4931 3.33516 41.3266 -3.69481 -0.7333 -45.8593 -2.6451 -14.3185 19.6546 5.22722 
-0.527053 81.1693 -10.4269 -180 -86.8147 -180 0 -1.186 -1.5018 -0.0329118 4.3781 -0.113465 0 9.964 0.2134 -0.0573506 8.75623 -0.225391 -6.93889e-017 13.134 -3.2573 -0.0573506 8.75624 -0.225391 5.55112e-017 20.686 -1.6905 -9.03207 -4.65339 -0.739605 -1.77636e-015 7.238 -0.1237 0.876825 -3.27387 -14.8 1.7069 20.075 5.0056 -8.01404 29.6931 0.618212 13.6458 -0.047 -4.849 -69.5847 -6.13807 -58.5302 28.3255 -0.9759 2.2888 -28.1807 -19.8574 -13.9123 22.1583 -0.53 10.8316 0.846695 31.9969 -9.98139 0.786 0.112 2.5817 7.15625e-015 3.97569e-015 6.36111e-015 0.3601 -0.878 4.2331 6.36111e-015 2.38542e-015 -0 1.8127 -1.216 2.2227 1.59028e-015 7.95139e-016 3.18055e-015 0.9571 1.114 1.7695 2.38542e-015 -1.59028e-015 6.36111e-015 4.1246 0.487 4.1451 4.77083e-015 5.56597e-015 -0 3.4052 -1.454 2.7682 3.18055e-015 1.59028e-015 -3.18055e-015 1.4531 -1.795 1.2713 3.97569e-015 0 -0 5.6954 0.21 2.1184 4.77083e-015 5.56597e-015 -0 3.9766 -1.54 2.3863 3.18055e-015 1.59028e-015 -3.18055e-015 1.4042 -1.926 1.125 3.97569e-015 0 -0 2.0956 0.66 -0.3894 2.38542e-015 -1.59028e-015 6.36111e-015 5.0395 -0.09 2.4971 4.77083e-015 5.56597e-015 -0 3.7921 -1.552 1.4806 3.18055e-015 1.59028e-015 -3.18055e-015 1.4655 -1.808 0.9609 3.97569e-015 0 -0 4.9141 -1.269 0.3591 4.77083e-015 5.56597e-015 -0 3.1477 -1.685 0.8462 3.18055e-015 1.59028e-015 -3.18055e-015 0.8055 -1.585 0.7955 3.97569e-015 0 -0 -1.7069 20.075 5.0056 -23.7381 2.1417 -11.5125 -13.6458 -0.047 -4.849 80.2391 -3.10932 -45.7833 -28.3255 -0.9759 2.2888 -41.8512 24.4192 75.5754 -22.1583 -0.53 10.8316 6.4095 21.9551 -7.39588 -0.786 0.112 2.5817 3.97569e-015 -1.19271e-015 3.18055e-015 -0.3601 -0.878 4.2331 2.2524e-006 6.75294e-007 -5.46685e-007 -1.8127 -1.216 2.2227 7.95139e-016 3.18055e-015 9.54166e-015 -0.9571 1.114 1.7695 5.56597e-015 -1.19271e-015 -0 -4.1246 0.487 4.1451 -1.59028e-015 1.59028e-015 3.18055e-015 -3.4052 -1.454 2.7682 2.2524e-006 6.75294e-007 -5.46685e-007 -1.4531 -1.795 1.2713 7.95139e-016 -3.18055e-015 9.54166e-015 -5.6954 0.21 2.1184 -1.59028e-015 1.59028e-015 3.18055e-015 -3.9766 -1.54 2.3863 2.2524e-006 6.75294e-007 -5.46685e-007 -1.4042 -1.926 1.125 7.95139e-016 -3.18055e-015 9.54166e-015 -2.0956 0.66 -0.3894 5.56597e-015 -1.19271e-015 -0 -5.0395 -0.09 2.4971 -1.59028e-015 1.59028e-015 3.18055e-015 -3.7921 -1.552 1.4806 2.2524e-006 6.75294e-007 -5.46685e-007 -1.4655 -1.808 0.9609 7.95139e-016 -3.18055e-015 9.54166e-015 -4.9141 -1.269 0.3592 -1.59028e-015 1.59028e-015 3.18055e-015 -3.1477 -1.685 0.8462 2.2524e-006 6.75294e-007 -5.46685e-007 -0.8055 -1.585 0.7955 7.95139e-016 -3.18055e-015 9.54166e-015 8.367 -8.2066 0.5982 13.7136 0.522863 1.73244 2.1923 -43.463 -0.4932 -0.249436 10.742 0.779767 0.7333 -45.8593 -2.6451 11.1012 13.6352 -1.64054 -8.367 -8.2066 0.5982 -6.88191 -15.5474 -7.91432 -2.1923 -43.463 -0.4931 3.33529 41.3258 -3.69459 -0.7333 -45.8593 -2.6451 -14.3182 19.6552 5.22728 
-0.526599 81.2329 -10.4053 -180 -86.5892 -180 0 -1.186 -1.5018 -0.0322339 4.3441 -0.113236 0 9.964 0.2134 -0.0560715 8.68827 -0.224988 -2.77556e-017 13.134 -3.2573 -0.0560715 8.68825 -0.224988 5.55112e-017 20.686 -1.6905 -9.02262 -3.84895 -0.611454 0 7.238 -0.1237 0.873227 -3.3353 -14.8736 1.7069 20.075 5.0056 -8.10472 29.9913 0.663716 13.6458 -0.047 -4.849 -69.5847 -6.13807 -58.5301 28.3255 -0.9759 2.2888 -28.1807 -19.8574 -13.9123 22.1583 -0.53 10.8316 0.846714 31.9969 -9.98139 0.786 0.112 2.5817 1.59028e-015 -1.59028e-015 -0 0.3601 -0.878 4.2331 -2.36601e-006 2.61306e-006 4.3192e-006 1.8127 -1.216 2.2227 -7.95139e-016 2.38542e-015 -1.27222e-014 0.9571 1.114 1.7695 3.18055e-015 -1.59028e-015 -3.18055e-015 4.1246 0.487 4.1451 5.56597e-015 -1.59028e-015 9.54166e-015 3.4052 -1.454 2.7682 -2.36601e-006 2.61306e-006 4.3192e-006 1.4531 -1.795 1.2713 1.58901e-030 7.15625e-015 -1.27222e-014 5.6954 0.21 2.1184 5.56597e-015 -1.59028e-015 9.54166e-015 3.9766 -1.54 2.3863 -2.36601e-006 2.61306e-006 4.3192e-006 1.4042 -1.926 1.125 1.58901e-030 7.15625e-015 -1.27222e-014 2.0956 0.66 -0.3894 3.18055e-015 -1.59028e-015 -3.18055e-015 5.0395 -0.09 2.4971 5.56597e-015 -1.59028e-015 9.54166e-015 3.7921 -1.552 1.4806 -2.36601e-006 2.61306e-006 4.3192e-006 1.4655 -1.808 0.9609 1.58901e-030 7.15625e-015 -1.27222e-014 4.9141 -1.269 0.3591 5.56597e-015 -1.59028e-015 9.54166e-015 3.1477 -1.685 0.8462 -2.36601e-006 2.61306e-006 4.3192e-006 0.8055 -1.585 0.7955 1.58901e-030 7.15625e-015 -1.27222e-014 -1.7069 20.075 5.0056 -24.4434 1.98166 -11.5718 -13.6458 -0.047 -4.849 80.2151 -3.21589 -46.1868 -28.3255 -0.9759 2.2888 -42.3525 25.2529 76.2744 -22.1583 -0.53 10.8316 6.43513 21.5163 -7.55879 -0.786 0.112 2.5817 1.01727e-006 -7.2465e-007 -3.00424e-006 -0.3601 -0.878 4.2331 -2.25222e-006 -6.75515e-007 5.47129e-007 -1.8127 -1.216 2.2227 2.25222e-006 6.75515e-007 -5.47129e-007 -0.9571 1.114 1.7695 -3.18055e-015 -1.98785e-015 -9.54166e-015 -4.1246 0.487 4.1451 1.01727e-006 -7.2465e-007 -3.00424e-006 -3.4052 -1.454 2.7682 -2.25222e-006 -6.75515e-007 5.47129e-007 -1.4531 -1.795 1.2713 2.25222e-006 6.75515e-007 -5.47129e-007 -5.6954 0.21 2.1184 1.01727e-006 -7.2465e-007 -3.00424e-006 -3.9766 -1.54 2.3863 -2.25222e-006 -6.75515e-007 5.47129e-007 -1.4042 -1.926 1.125 2.25222e-006 6.75515e-007 -5.47129e-007 -2.0956 0.66 -0.3894 -3.18055e-015 -1.98785e-015 -9.54166e-015 -5.0395 -0.09 2.4971 1.01727e-006 -7.2465e-007 -3.00424e-006 -3.7921 -1.552 1.4806 -2.25222e-006 -6.75515e-007 5.47129e-007 -1.4655 -1.808 0.9609 2.25222e-006 6.75515e-007 -5.47129e-007 -4.9141 -1.269 0.3592 1.01727e-006 -7.2465e-007 -3.00424e-006 -3.1477 -1.685 0.8462 -2.25222e-006 -6.75515e-007 5.47129e-007 -0.8055 -1.585 0.7955 2.25222e-006 6.75515e-007 -5.47129e-007 8.367 -8.2066 0.5982 13.7134 0.763929 1.73813 2.1923 -43.463 -0.4932 -0.249448 10.7456 0.779967 0.7333 -45.8593 -2.6451 11.1007 13.6325 -1.64023 -8.367 -8.2066 0.5982 -6.90002 -15.2707 -7.95005 -2.1923 -43.463 -0.4931 3.3352 41.3259 -3.6945 -0.7333 -45.8593 -2.6451 -14.3179 19.6558 5.22737 
